<?xml version="1.0" standalone="no"?><!DOCTYPE svg PUBLIC "-//W3C//DTD SVG 1.1//EN" "http://www.w3.org/Graphics/SVG/1.1/DTD/svg11.dtd"><svg t="1581038058685" class="icon" viewBox="0 0 1024 1024" version="1.1" xmlns="http://www.w3.org/2000/svg" p-id="2239" xmlns:xlink="http://www.w3.org/1999/xlink" width="100" height="100"><defs><style type="text/css"></style></defs><path d="M337.749333 39.068444c32.298667 0 62.648889 12.572444 85.489778 35.399112l348.529778 348.529777a121.173333 121.173333 0 0 1 35.256889 88.96 121.272889 121.272889 0 0 1-35.256889 89.045334L423.224889 949.532444a120.078222 120.078222 0 0 1-85.475556 35.399112 120.078222 120.078222 0 0 1-85.475555-35.399112c-47.132444-47.132444-47.132444-123.832889 0-170.965333L518.840889 512 252.273778 245.447111c-47.132444-47.132444-47.132444-123.832889 0-170.965333a120.078222 120.078222 0 0 1 85.475555-35.413334z m0 888.974223a63.630222 63.630222 0 0 0 45.255111-18.730667L724.807111 560.782222c12.672-12.700444 11.847111-29.639111 11.847111-47.715555v-2.147556c0-18.076444 0.824889-35.000889-11.847111-47.687111L379.633778 114.688c-12.088889-12.088889-26.481778-18.730667-43.562667-18.730667-17.109333 0-32.327111 6.656-44.416 18.730667-24.96 24.96-24.533333 65.564444 0.426667 90.524444l286.890666 286.663112a28.444444 28.444444 0 0 1 0.099556 40.220444L292.451556 818.773333a64.099556 64.099556 0 0 0 0.014222 90.524445 63.616 63.616 0 0 0 45.283555 18.744889z" fill="" p-id="2240"></path></svg>