<?xml version="1.0" standalone="no"?><!DOCTYPE svg PUBLIC "-//W3C//DTD SVG 1.1//EN" "http://www.w3.org/Graphics/SVG/1.1/DTD/svg11.dtd"><svg t="1581038022660" class="icon" viewBox="0 0 1024 1024" version="1.1" xmlns="http://www.w3.org/2000/svg" p-id="1978" xmlns:xlink="http://www.w3.org/1999/xlink" width="100" height="100"><defs><style type="text/css"></style></defs><path d="M512 50.033778C257.265778 50.033778 50.033778 257.265778 50.033778 512c0 254.72 207.232 461.966222 461.966222 461.966222S973.966222 766.72 973.966222 512C973.966222 257.265778 766.734222 50.033778 512 50.033778z m0 867.043555C288.64 917.077333 106.922667 735.36 106.922667 512S288.64 106.922667 512 106.922667 917.077333 288.64 917.077333 512 735.36 917.077333 512 917.077333z" fill="" p-id="1979"></path><path d="M512 288.284444c-122.510222 0-222.236444 99.029333-223.587556 221.240889l-44.117333 15.928889a29.582222 29.582222 0 0 0-19.342222 22.755556c-2.161778 12.032 2.631111 24.661333 12.700444 33.194666l97.123556 79.132445c6.115556 5.162667 12.942222 7.893333 19.754667 7.893333 13.724444 0 24.462222-10.496 27.335111-26.382222l25.216-121.116444a37.063111 37.063111 0 0 0-7.836445-30.023112 30.108444 30.108444 0 0 0-33.365333-9.329777l-48.497778 17.493333c6.712889-101.632 91.306667-182.328889 194.616889-182.328889 107.662222 0 195.271111 87.594667 195.271111 195.271111 0 107.662222-87.608889 195.271111-195.271111 195.271111a14.222222 14.222222 0 1 0 0 28.444445c123.363556 0 223.715556-100.366222 223.715556-223.715556 0-123.363556-100.366222-223.729778-223.715556-223.729778z m-135.864889 219.889778c0.199111 0 0.711111 0.270222 1.294222 0.967111a8.391111 8.391111 0 0 1 1.720889 6.343111l-25.216 121.102223a13.639111 13.639111 0 0 1-0.611555 2.360889l-0.398223-0.327112-97.109333-79.118222c-2.275556-1.934222-3.157333-4.593778-2.858667-6.257778 0.085333-0.497778 0.113778-0.725333 1.009778-1.024l122.168889-44.046222zM606.520889 166.954667a14.222222 14.222222 0 1 0-7.509333 27.448889C741.617778 233.386667 841.216 363.989333 841.216 512a14.222222 14.222222 0 1 0 28.444444 0c0-160.796444-108.202667-302.677333-263.139555-345.045333zM512 182.769778a343.822222 343.822222 0 0 1 19.2 0.526222 14.222222 14.222222 0 0 0 0.753778-28.416 371.171556 371.171556 0 0 0-19.939556-0.554667 14.222222 14.222222 0 1 0-0.014222 28.444445z" fill="" p-id="1980"></path></svg>